<svg width="24" height="24" viewBox="0 0 24 24" fill="none" xmlns="http://www.w3.org/2000/svg">
<g clip-path="url(#clip0_5_38)">
<path d="M3.02329 4.56026L0.446241 12.0745L3.51775 13.1279L6.09479 5.61365L3.02329 4.56026Z" fill="#FF9900"/>
<path d="M8.32607 5.19648L8.0273 5.34342C7.65506 5.52464 7.21915 5.54913 6.83222 5.41199L6.33264 5.23567C6.30325 5.21608 6.27386 5.20138 6.24448 5.19159L3.16862 4.13855C2.93842 4.06018 2.68373 4.18263 2.60537 4.41283L0.0241967 11.931C-0.0149862 12.0437 -0.00519049 12.1661 0.0437881 12.269C0.0927667 12.3718 0.185826 12.4551 0.298477 12.4943L3.36943 13.5473C3.41841 13.562 3.46739 13.5718 3.51147 13.5718C3.69759 13.5718 3.86902 13.4543 3.93269 13.2731L6.36692 6.19075L6.53345 6.24952C7.14568 6.46503 7.83138 6.42585 8.41913 6.14177L8.7179 5.99484C9.08524 5.81362 9.51625 5.78913 9.90318 5.92137L15.5504 7.86582C15.4916 8.10092 15.3741 8.38009 15.1586 8.53193C14.9186 8.69845 14.561 8.69845 14.0908 8.53682L11.5733 7.6748C11.4558 7.63562 11.3285 7.64541 11.2207 7.70419C11.1129 7.76296 11.0346 7.86582 11.0003 7.98337C10.9954 7.99806 10.6477 9.30089 9.53584 9.89843C8.83544 10.2756 7.96363 10.2903 6.93997 9.94251C6.70977 9.86414 6.45509 9.98659 6.37672 10.2168C6.29835 10.447 6.4208 10.7017 6.651 10.78C7.23874 10.9809 7.7922 11.0837 8.30648 11.0837C8.90401 11.0837 9.45258 10.9515 9.95216 10.6821C10.9464 10.1482 11.4607 9.21273 11.6958 8.65437L13.797 9.37436C14.5463 9.63395 15.1733 9.59476 15.6582 9.25681C16.4369 8.71805 16.4761 7.62582 16.481 7.57684C16.4859 7.38093 16.3635 7.20951 16.1822 7.14583L10.1873 5.07894C9.58482 4.87323 8.90402 4.91731 8.32607 5.19648ZM3.24209 12.5629L1.00867 11.7988L3.29597 5.12302L5.52939 5.88708L3.24209 12.5629Z" fill="#FF9900"/>
<path d="M17.1421 6.03763L20.6334 13.1727L23.5498 11.7456L20.0586 4.61058L17.1421 6.03763Z" fill="#FF9900"/>
<path d="M20.0907 13.0674L19.0377 14.0371C18.0826 14.9138 17.0051 15.6534 15.8394 16.2216L10.2509 18.9546C10.006 19.077 9.70726 18.9742 9.58482 18.7244C9.46237 18.4795 9.56522 18.1807 9.81502 18.0583L9.88359 18.024L12.9398 16.5301C13.1603 16.4224 13.2533 16.1579 13.1456 15.9375C13.0378 15.7171 12.7733 15.624 12.5529 15.7318L9.49665 17.2256L7.95873 17.9799C7.71383 18.1024 7.41506 17.9995 7.29262 17.7497C7.23384 17.6322 7.22405 17.495 7.26813 17.3726C7.31221 17.2452 7.40037 17.1473 7.51792 17.0885L8.67871 16.5203L11.9995 14.8943C12.2199 14.7865 12.3129 14.522 12.2052 14.3016C12.0974 14.0812 11.8329 13.9882 11.6125 14.0959L8.28688 15.7269L8.15954 15.7906L6.57263 16.5693C6.45508 16.6281 6.31794 16.6379 6.1955 16.5938C6.06815 16.5497 5.9702 16.4616 5.91142 16.344C5.78897 16.0991 5.89183 15.8004 6.14162 15.6779L6.69018 15.4085L7.81179 14.86L8.12525 14.7081L10.7015 13.4445C10.9219 13.3367 11.015 13.0723 10.9072 12.8519C10.7995 12.6314 10.535 12.5384 10.3146 12.6461L7.52282 14.0126L6.30325 14.6102C6.05836 14.7277 5.75959 14.6298 5.63714 14.38C5.57837 14.2624 5.56857 14.1253 5.61265 14.0028C5.65673 13.8755 5.74489 13.7775 5.86244 13.7188L7.99301 12.6755C8.21342 12.5678 8.30647 12.3033 8.19872 12.0829C8.09097 11.8625 7.82648 11.7694 7.60608 11.8772L5.47551 12.9204C5.14246 13.0821 4.89267 13.3661 4.77512 13.7139C4.65757 14.0616 4.67716 14.4388 4.83879 14.7718C4.94164 14.9775 5.08858 15.1489 5.2649 15.2763C4.95634 15.6828 4.87797 16.2412 5.11797 16.731C5.2796 17.064 5.56367 17.3138 5.91142 17.4314C6.05836 17.4803 6.20529 17.5048 6.35223 17.5048C6.34733 17.7252 6.39141 17.9456 6.49427 18.1464C6.73426 18.6362 7.22895 18.9203 7.73832 18.9203C7.94403 18.9203 8.14974 18.8762 8.34566 18.7783L8.65912 18.6264C8.67381 18.793 8.71789 18.9546 8.79136 19.1113C9.03136 19.6011 9.52604 19.8852 10.0354 19.8852C10.2411 19.8852 10.4468 19.8411 10.6428 19.7431L16.2312 17.0101C17.4753 16.4028 18.6214 15.6191 19.6401 14.6837L20.8891 13.5327L23.7494 12.1319C23.9698 12.0241 24.0629 11.7596 23.9551 11.5392L20.4581 4.41284C20.4042 4.30509 20.316 4.22672 20.2034 4.18754C20.0907 4.14836 19.9683 4.15815 19.8654 4.20713L16.9463 5.63241C16.7259 5.74016 16.6328 6.00464 16.7406 6.22505L20.0907 13.0674ZM19.8556 5.20139L22.956 11.5441L20.8352 12.5825L17.7349 6.23974L19.8556 5.20139Z" fill="#FF9900"/>
</g>
<defs>
<clipPath id="clip0_5_38">
<rect width="24" height="24" fill="white"/>
</clipPath>
</defs>
</svg>
