<svg width="24" height="24" viewBox="0 0 24 24" fill="none" xmlns="http://www.w3.org/2000/svg">
<g clip-path="url(#clip0_5_85)">
<path d="M6.11473 12.3129C6.40888 12.2609 6.69412 12.2297 6.99719 12.2297C7.29134 12.2297 7.5855 12.2609 7.88857 12.3233V3.55659C7.88857 2.61025 8.31643 2.07988 9.18106 2.07988H12.9605V7.73715C12.9605 9.24506 13.5934 9.97302 14.877 9.97302H19.6547V18.9789C19.6547 19.9356 19.2269 20.4556 18.3622 20.4556H12.702C12.595 21.2044 12.3544 21.9115 12.0246 22.5355H18.5227C20.4391 22.5355 21.4286 21.3603 21.4286 19.1141V9.67143C21.4286 8.21552 21.2681 7.54996 20.4926 6.62441L15.8307 1.10234C15.0731 0.207988 14.4491 0 13.326 0H9.02061C7.11307 0 6.11473 1.17513 6.11473 3.4318V12.3129ZM14.5115 7.53956V2.35026L19.4141 8.15312H15.0463C14.6719 8.15312 14.5115 7.96593 14.5115 7.53956ZM6.60498 24.5634H7.38048C7.68355 24.5634 7.92422 24.345 7.98662 23.9914L8.20055 22.9827C8.30751 22.9515 8.43231 22.8891 8.53927 22.8267L9.29694 23.357C9.54653 23.5442 9.84068 23.5338 10.0724 23.2738L10.5983 22.6395C10.8123 22.3899 10.8301 22.0467 10.6607 21.7243L10.2151 20.8508C10.2864 20.7156 10.3131 20.6116 10.3577 20.4764L11.2134 20.2372C11.5165 20.154 11.7126 19.8836 11.7126 19.5197V18.6357C11.7126 18.2925 11.5076 18.0221 11.2134 17.9389L10.3666 17.6998C10.322 17.5438 10.2685 17.4294 10.224 17.3254L10.6964 16.4206C10.8568 16.1191 10.8301 15.7447 10.6162 15.5159L10.0635 14.8919C9.84959 14.6527 9.55544 14.5903 9.30585 14.7671L8.53927 15.3287C8.41448 15.2559 8.30751 15.2143 8.20055 15.1727L7.98662 14.1536C7.91531 13.8104 7.68355 13.5816 7.38048 13.5816H6.60498C6.30192 13.5816 6.06124 13.8208 5.99885 14.1536L5.80275 15.1623C5.66013 15.2143 5.55316 15.2559 5.43728 15.3287L4.67961 14.7671C4.43894 14.6007 4.13587 14.6423 3.92194 14.8919L3.38712 15.5159C3.17319 15.7551 3.1197 16.1191 3.28015 16.4206L3.76149 17.3254C3.71692 17.4294 3.67236 17.5646 3.61887 17.6998L2.77207 17.9389C2.47791 18.0221 2.28181 18.3029 2.28181 18.6357V19.5197C2.28181 19.8836 2.47791 20.154 2.77207 20.2372L3.6367 20.4764C3.68127 20.6116 3.72584 20.7156 3.77041 20.8508L3.32472 21.7347C3.16427 22.0467 3.1821 22.4003 3.39603 22.6395L3.92194 23.2738C4.13587 23.5338 4.43894 23.5442 4.68852 23.357L5.45511 22.8267C5.5799 22.8995 5.68687 22.9515 5.80275 22.9827L5.99885 23.9914C6.06124 24.3346 6.30192 24.5634 6.60498 24.5634ZM6.99719 20.7988C6.17712 20.7988 5.52642 20.0292 5.52642 19.0725C5.52642 18.1365 6.17712 17.3566 6.99719 17.3462C7.79943 17.3358 8.47687 18.1365 8.47687 19.0725C8.47687 20.0292 7.79943 20.7988 6.99719 20.7988Z" fill="#FF9900"/>
</g>
<defs>
<clipPath id="clip0_5_85">
<rect width="24" height="24" fill="white"/>
</clipPath>
</defs>
</svg>
