<svg width="24" height="24" viewBox="0 0 24 24" fill="none" xmlns="http://www.w3.org/2000/svg">
<path d="M10.8 21.6H4.79999C3.47451 21.6 2.39999 20.5254 2.4 19.2L2.40009 4.80001C2.4001 3.47453 3.47462 2.40002 4.80009 2.40002H15.6004C16.9258 2.40002 18.0004 3.47454 18.0004 4.80002V9.60002M17.4 17.349V17.2858M6.60038 7.20002H13.8004M6.60038 10.8H13.8004M6.60038 14.4H10.2004M21.6 17.4C21.6 17.4 20.6038 20.3397 17.4 20.2883C14.1962 20.237 13.2 17.4 13.2 17.4C13.2 17.4 14.1558 14.409 17.4 14.409C20.6442 14.409 21.6 17.4 21.6 17.4Z" stroke="#898989" stroke-width="2" stroke-linecap="round" stroke-linejoin="round"/>
</svg>
